ply
format ascii 1.0
comment VCGLIB generated
element vertex 528
property float x
property float y
property float z
property float nx
property float ny
property float nz
property uchar red
property uchar green
property uchar blue
property uchar alpha
element face 1052
property list uchar int vertex_indices
end_header
-0.331046 0.7016 -2.29968 -0.8927778 0 -6.203334 0 0 0 255 
-0.331046 -0.7016 -2.29968 -0.8927778 0 -6.203333 0 0 0 255 
-0.654935 0.7016 -2.22923 -1.766477 0 -6.013 0 0 0 255 
-0.331046 0.7197 -2.29968 -0.8788928 0.6396037 -6.108817 0 0 0 255 
-0.00035 0.7016 -2.323431 -0.0009330958 -6.807617e-06 -6.267108 0 0 0 255 
0.330354 0.7016 -2.299779 0.8908853 -1.149591e-05 -6.203608 0 0 0 255 
-0.00035 0.7197 -2.323431 -0.001186003 0.6505615 -6.168637 0 0 0 255 
-0.00035 -0.7016 -2.323431 -0.0008707717 0 -6.267104 0 0 0 255 
0.330254 -0.7016 -2.299779 0.8907462 -2.493476e-05 -6.203648 0 0 0 255 
-0.00035 -0.7197 -2.323431 -0.0008608922 -0.6505635 -6.168617 0 0 0 255 
-0.000349 -0.7365 -2.31983 -0.001065113 -2.850218 -5.197386 0 0 0 255 
0.330254 -0.7197 -2.299779 0.8769249 -0.6394085 -6.109191 0 0 0 255 
-0.331046 -0.7197 -2.29968 -0.8788933 -0.6395977 -6.10882 0 0 0 255 
-0.330545 -0.7365 -2.29618 -0.7389798 -2.850376 -5.133736 0 0 0 255 
-0.654935 -0.7197 -2.22923 -1.739423 -0.640417 -5.921039 0 0 0 255 
-0.654935 -0.7016 -2.22923 -1.766476 0 -6.013 0 0 0 255 
-0.653935 -0.7365 -2.225832 -1.461206 -2.852469 -4.974844 0 0 0 255 
-0.965518 -0.7197 -2.113283 -2.56551 -0.6387779 -5.613332 0 0 0 255 
-0.964017 -0.7365 -2.110084 -2.157997 -2.844265 -4.723572 0 0 0 255 
-1.256394 -0.7197 -1.95434 -3.339511 -0.627748 -5.193754 0 0 0 255 
-0.965518 -0.7016 -2.113283 -2.60518 0 -5.700048 0 0 0 255 
-0.965518 0.7016 -2.113283 -2.605179 0 -5.700047 0 0 0 255 
-1.256394 -0.7016 -1.95434 -3.389026 0 -5.271902 0 0 0 255 
-1.256394 0.7016 -1.95434 -3.389026 0 -5.271902 0 0 0 255 
-1.521764 -0.7016 -1.755701 -4.104382 0 -4.736141 0 0 0 255 
-1.521764 0.7016 -1.755701 -4.104383 0 -4.736142 0 0 0 255 
-1.521764 -0.7197 -1.755701 -4.041259 -0.6415018 -4.663664 0 0 0 255 
-1.756128 -0.7016 -1.521265 -4.736937 0 -4.10355 0 0 0 255 
-1.756128 0.7016 -1.521265 -4.736935 0 -4.103549 0 0 0 255 
-1.756128 -0.7197 -1.521265 -4.664522 -0.6412787 -4.040518 0 0 0 255 
-1.954788 -0.7016 -1.255834 -5.273083 0 -3.386917 0 0 0 255 
-1.954788 0.7016 -1.255834 -5.273084 0 -3.386918 0 0 0 255 
-2.113544 -0.7016 -0.964809 -5.701446 3.179767e-07 -2.602342 0 0 0 255 
-1.954788 -0.7197 -1.255834 -5.192109 -0.6417184 -3.335013 0 0 0 255 
-1.951788 -0.7365 -1.253935 -4.36765 -2.848053 -2.806273 0 0 0 255 
-2.113544 -0.7197 -0.964809 -5.616497 -0.6321725 -2.563022 0 0 0 255 
-2.110343 -0.7365 -0.963409 -4.725188 -2.837179 -2.157495 0 0 0 255 
-2.229398 -0.7197 -0.654192 -5.922659 -0.6362841 -1.738079 0 0 0 255 
-2.229398 -0.7016 -0.654192 -6.013337 4.065236e-07 -1.765545 0 0 0 255 
-2.225996 -0.7365 -0.653293 -4.975821 -2.84802 -1.461504 0 0 0 255 
-2.299847 -0.7197 -0.330282 -6.108892 -0.6393017 -0.8772876 0 0 0 255 
-2.299847 -0.7016 -0.330282 -6.203477 0 -0.890892 0 0 0 255 
-2.296347 -0.736501 -0.329782 -5.135242 -2.848844 -0.7375529 0 0 0 255 
-2.323397 -0.7197 0.000323 -6.173314 -0.6333362 0.0007073546 0 0 0 255 
-2.319897 -0.736501 0.000323 -5.189717 -2.842239 0.000586994 0 0 0 255 
-2.299747 -0.7197 0.331019 -6.108632 -0.6391996 0.8792367 0 0 0 255 
-2.323397 -0.7016 0.000323 -6.267243 0 0.0008805804 0 0 0 255 
-2.323397 0.7016 0.000323 -6.267242 0 0.0008806735 0 0 0 255 
-2.299747 -0.7016 0.331019 -6.203208 -2.057584e-07 0.892718 0 0 0 255 
-2.299747 0.7016 0.331019 -6.203207 0 0.8927159 0 0 0 255 
-2.229198 -0.7016 0.654909 -6.012805 -2.99007e-07 1.767373 0 0 0 255 
-2.229198 0.7016 0.65491 -6.012802 -4.256081e-07 1.767374 0 0 0 255 
-2.229198 -0.7197 0.654909 -5.920781 -0.6408672 1.740334 0 0 0 255 
-2.113251 -0.701601 0.965491 -5.700655 0 2.604065 0 0 0 255 
-2.113251 0.7016 0.965491 -5.700655 -3.323593e-07 2.604068 0 0 0 255 
-2.113251 -0.7197 0.965491 -5.613755 -0.6391298 2.564749 0 0 0 255 
-1.954407 -0.701601 1.256466 -5.271705 -5.455851e-07 3.388985 0 0 0 255 
-1.954407 0.7016 1.256466 -5.271708 0 3.388982 0 0 0 255 
-1.954407 -0.7197 1.256466 -5.190809 -0.6419468 3.336754 0 0 0 255 
-1.755667 -0.701601 1.521734 -4.735353 -7.515886e-07 4.105439 0 0 0 255 
-1.755667 0.7016 1.521735 -4.735352 -8.49333e-07 4.10544 0 0 0 255 
-1.521231 -0.701601 1.756102 -4.103559 0 4.736922 0 0 0 255 
-1.755667 -0.7197 1.521734 -4.663067 -0.6410272 4.042421 0 0 0 255 
-1.752967 -0.736501 1.519436 -3.92328 -2.846844 3.401229 0 0 0 255 
-1.521231 -0.7197 1.756102 -4.043239 -0.6286061 4.666417 0 0 0 255 
-1.518932 -0.736501 1.7535 -3.400969 -2.833502 3.926124 0 0 0 255 
-1.255801 -0.7197 1.95476 -3.335676 -0.6415108 5.191958 0 0 0 255 
-1.255801 -0.701601 1.95476 -3.388042 0 5.27247 0 0 0 255 
-1.253902 -0.736501 1.951761 -2.806055 -2.84809 4.368096 0 0 0 255 
-0.964877 -0.719701 2.113616 -2.563305 -0.6388996 5.614148 0 0 0 255 
-0.963378 -0.736501 2.110417 -2.152148 -2.852617 4.715259 0 0 0 255 
-0.65426 -0.719701 2.229369 -1.737718 -0.6409285 5.921662 0 0 0 255 
-0.964877 -0.701601 2.113616 -2.602633 0 5.701138 0 0 0 255 
-0.964877 0.701599 2.113616 -2.602633 0 5.701139 0 0 0 255 
-0.65426 -0.701601 2.229369 -1.764721 0 6.013648 0 0 0 255 
-0.65426 0.701599 2.229369 -1.764721 0 6.013648 0 0 0 255 
-0.330349 -0.701601 2.29982 -0.8908427 0 6.203476 0 0 0 255 
-0.330349 0.701599 2.29982 -0.8908429 0 6.203476 0 0 0 255 
0.000355 -0.701601 2.32337 0.0009562448 0 6.267244 0 0 0 255 
-0.330349 -0.719701 2.29982 -0.8772372 -0.6393366 6.108876 0 0 0 255 
-0.329849 -0.736501 2.29632 -0.7376882 -2.850025 5.133915 0 0 0 255 
0.000355 -0.719701 2.32337 0.0007975774 -0.6336957 6.17323 0 0 0 255 
0.000354 -0.736501 2.319868 0.0006324127 -2.842297 5.190031 0 0 0 255 
0.331051 -0.719701 2.299719 0.8792425 -0.6389228 6.108703 0 0 0 255 
0.330551 -0.736501 2.296221 0.7393544 -2.850043 5.133432 0 0 0 255 
0.65494 -0.719701 2.22917 1.739532 -0.6406205 5.921215 0 0 0 255 
0.331051 -0.701601 2.299719 0.8927293 0 6.203208 0 0 0 255 
0.331051 0.701599 2.299719 0.8927288 0 6.203206 0 0 0 255 
0.65494 -0.701601 2.22917 1.766533 0 6.013117 0 0 0 255 
0.65494 0.701599 2.22917 1.766532 0 6.013117 0 0 0 255 
0.965523 -0.701601 2.113324 2.604346 -7.984885e-07 5.700356 0 0 0 255 
0.965523 0.701599 2.113324 2.60434 0 5.70036 0 0 0 255 
1.256399 -0.701601 1.95438 3.389647 -1.791468e-06 5.27144 0 0 0 255 
0.965523 -0.719701 2.113324 2.564993 -0.6390123 5.613348 0 0 0 255 
0.964022 -0.736501 2.110125 2.153515 -2.85282 4.714497 0 0 0 255 
1.256399 -0.7197 1.95438 3.337204 -0.6418481 5.190872 0 0 0 255 
1.254498 -0.736501 1.95138 2.807299 -2.848518 4.367126 0 0 0 255 
1.521769 -0.7197 1.75564 4.044644 -0.6287156 4.665167 0 0 0 255 
1.519468 -0.736501 1.753039 3.402096 -2.833666 3.925047 0 0 0 255 
1.756133 -0.7197 1.521204 4.664233 -0.6412524 4.040982 0 0 0 255 
1.521769 -0.701601 1.75564 4.104995 -9.659839e-07 4.735681 0 0 0 255 
1.521769 0.701599 1.755641 4.104999 -1.61002e-06 4.735676 0 0 0 255 
1.756133 -0.701601 1.521204 4.7366 0 4.103997 0 0 0 255 
1.756133 0.7016 1.521204 4.736604 -6.433337e-07 4.103993 0 0 0 255 
1.954792 -0.701601 1.255873 5.272739 0 3.387382 0 0 0 255 
1.954792 0.7016 1.255873 5.272738 0 3.387381 0 0 0 255 
1.954792 -0.7197 1.255873 5.191826 -0.6419376 3.335183 0 0 0 255 
2.113549 -0.701601 0.96485 5.701441 -3.17973e-07 2.602346 0 0 0 255 
2.113549 0.7016 0.96485 5.701439 0 2.602349 0 0 0 255 
2.229402 -0.7016 0.654232 6.013339 -4.065203e-07 1.765551 0 0 0 255 
2.113549 -0.7197 0.96485 5.614513 -0.6392028 2.563044 0 0 0 255 
2.110348 -0.736501 0.963351 4.724248 -2.844575 2.156384 0 0 0 255 
2.229402 -0.7197 0.654232 5.921321 -0.640833 1.738525 0 0 0 255 
2.226001 -0.736501 0.653233 4.975343 -2.85287 1.460628 0 0 0 255 
2.299853 -0.7197 0.330321 6.108913 -0.6391516 0.8773819 0 0 0 255 
2.296353 -0.736501 0.329823 5.135027 -2.849038 0.7377374 0 0 0 255 
2.323403 -0.7197 -0.000383 6.173315 -0.6333363 -0.001178166 0 0 0 255 
2.299853 -0.7016 0.330321 6.203478 0 0.8908407 0 0 0 255 
2.299853 0.7016 0.330321 6.203479 -1.930055e-07 0.890839 0 0 0 255 
2.323403 -0.7016 -0.000383 6.267242 0 -0.001025107 0 0 0 255 
2.323403 0.7016 -0.000383 6.267243 0 -0.001025356 0 0 0 255 
2.299752 -0.7016 -0.33098 6.203203 0 -0.8927999 0 0 0 255 
2.299752 0.7016 -0.33098 6.203199 0 -0.8927994 0 0 0 255 
2.299752 -0.7197 -0.33098 6.108603 -0.6393501 -0.8791708 0 0 0 255 
2.229203 -0.7016 -0.654867 6.012802 0 -1.767375 0 0 0 255 
2.229203 0.7016 -0.654867 6.012804 0 -1.767376 0 0 0 255 
2.229203 -0.7197 -0.654867 5.922226 -0.635926 -1.739887 0 0 0 255 
2.113256 -0.7016 -0.96545 5.70066 4.359842e-07 -2.604059 0 0 0 255 
2.113256 0.7016 -0.96545 5.700658 0 -2.604063 0 0 0 255 
2.113256 -0.7197 -0.96545 5.615728 -0.6321635 -2.564716 0 0 0 255 
1.954412 -0.7016 -1.256426 5.272051 6.062892e-07 -3.388522 0 0 0 255 
1.954412 0.7016 -1.256425 5.272052 7.170477e-07 -3.388521 0 0 0 255 
1.954412 -0.7197 -1.256426 5.191073 -0.6418035 -3.336581 0 0 0 255 
1.755672 -0.7016 -1.521795 4.735683 0 -4.104995 0 0 0 255 
1.755672 0.7016 -1.521795 4.735685 5.467429e-07 -4.10499 0 0 0 255 
1.755672 -0.7197 -1.521795 4.663301 -0.6412709 -4.041926 0 0 0 255 
1.521236 -0.7016 -1.75616 4.102944 0 -4.737387 0 0 0 255 
1.521236 0.7016 -1.75616 4.102943 0 -4.737385 0 0 0 255 
1.255806 -0.7016 -1.954719 3.387447 0 -5.272915 0 0 0 255 
1.521236 -0.7197 -1.75616 4.039904 -0.641139 -4.664959 0 0 0 255 
1.518937 -0.7365 -1.75346 3.399463 -2.846728 -3.924578 0 0 0 255 
1.255806 -0.7197 -1.954719 3.337975 -0.6275556 -5.194799 0 0 0 255 
1.253907 -0.7365 -1.95182 2.80741 -2.833051 -4.369914 0 0 0 255 
0.964882 -0.7197 -2.113576 2.563812 -0.6388131 -5.614095 0 0 0 255 
0.964882 -0.7016 -2.113576 2.603473 0 -5.700825 0 0 0 255 
0.963383 -0.7365 -2.110376 2.156575 -2.844312 -4.724201 0 0 0 255 
0.654265 -0.7197 -2.229429 1.737371 -0.6409146 -5.921475 0 0 0 255 
0.654265 -0.7016 -2.229429 1.764458 -2.024785e-05 -6.013576 0 0 0 255 
0.653265 -0.7365 -2.226028 1.459624 -2.852573 -4.975644 0 0 0 255 
0.329755 -0.7365 -2.29628 0.7373403 -2.848781 -5.13565 0 0 0 255 
0.650267 -0.7466 -2.21583 0.7883418 -5.296326 -2.687859 0 0 0 255 
0.958984 -0.7466 -2.100776 1.165479 -5.289174 -2.553385 0 0 0 255 
0.328256 -0.7466 -2.28578 0.3989571 -5.293834 -2.77625 0 0 0 255 
0.645269 -0.75 -2.198929 0.1748986 -6.220883 -0.5964829 0 0 0 255 
0.951687 -0.75 -2.084675 0.2574636 -6.221248 -0.5637827 0 0 0 255 
0.640272 -0.75 -2.181926 0 -6.283185 0 0 0 0 255 
0.325759 -0.75 -2.268381 0.08857559 -6.220555 -0.6168886 0 0 0 255 
-0.000345 -0.75 -2.29163 -9.437319e-05 -6.221375 -0.6191476 0 0 0 255 
0.323261 -0.75 -2.250879 0 -6.283185 0 0 0 0 255 
-0.000342 -0.75 -2.273929 7.310734e-08 -6.283184 -5.090681e-07 0 0 0 255 
1.229113 -0.75 -1.913116 0 -6.283185 0 0 0 0 255 
2.068359 -0.75 -0.944944 4.65841e-07 -6.283185 -3.368463e-07 0 0 0 255 
-1.229687 -0.75 -1.912742 -3.413702e-07 -6.283186 -6.088226e-07 0 0 0 255 
-0.640928 -0.75 -2.181734 0 -6.283185 0 0 0 0 255 
-0.323939 -0.75 -2.25078 0 -6.283187 0 0 0 0 255 
-0.326441 -0.75 -2.26828 -0.08874866 -6.220576 -0.6167592 0 0 0 255 
-0.645931 -0.75 -2.198732 -0.1750873 -6.220878 -0.5964491 0 0 0 255 
-0.328944 -0.7466 -2.285681 -0.3985232 -5.295143 -2.774921 0 0 0 255 
-0.000347 -0.7466 -2.30933 -0.000785999 -5.282507 -2.8126 0 0 0 255 
-0.650933 -0.7466 -2.215631 -0.7890882 -5.296798 -2.687176 0 0 0 255 
-0.959616 -0.7466 -2.100485 -1.166265 -5.289174 -2.553032 0 0 0 255 
-0.952313 -0.75 -2.084387 -0.2576319 -6.221249 -0.5637119 0 0 0 255 
-1.248792 -0.7466 -1.942541 -1.517496 -5.290042 -2.360358 0 0 0 255 
-1.23929 -0.75 -1.927643 -0.3354013 -6.221197 -0.5215151 0 0 0 255 
-1.512562 -0.7466 -1.745001 -1.838926 -5.289451 -2.121092 0 0 0 255 
-1.254493 -0.7365 -1.951441 -2.808686 -2.833269 -4.36902 0 0 0 255 
-1.519463 -0.7365 -1.753 -3.40068 -2.847002 -3.923583 0 0 0 255 
-1.753428 -0.7365 -1.518965 -3.918967 -2.853235 -3.395433 0 0 0 255 
-1.745427 -0.7466 -1.511965 -2.118394 -5.296402 -1.834275 0 0 0 255 
-1.942888 -0.7466 -1.248235 -2.361545 -5.289701 -1.517649 0 0 0 255 
-1.732125 -0.75 -1.500467 -0.4708156 -6.220612 -0.4078903 0 0 0 255 
-1.50096 -0.75 -1.731703 -0.4065389 -6.221045 -0.46918 0 0 0 255 
-1.718723 -0.75 -1.48887 0 -6.283189 0 0 0 0 255 
-1.928086 -0.75 -1.238638 -0.5225842 -6.220996 -0.3355856 0 0 0 255 
-1.913184 -0.75 -1.229139 0 -6.283185 0 0 0 0 255 
-2.084642 -0.75 -0.951614 -0.5625829 -6.221543 -0.2565953 0 0 0 255 
-2.068641 -0.75 -0.944317 0 -6.283188 0 0 0 0 255 
-2.100744 -0.7466 -0.959011 -2.552323 -5.289264 -1.165043 0 0 0 255 
-2.198895 -0.75 -0.645296 -0.5964346 -6.220882 -0.1750735 0 0 0 255 
-2.215796 -0.7466 -0.650293 -2.68728 -5.296804 -0.7887532 0 0 0 255 
-2.181895 -0.75 -0.6403 0 -6.283185 0 0 0 0 255 
-2.268348 -0.75 -0.325786 -0.6135552 -6.22124 -0.08812308 0 0 0 255 
-2.250846 -0.75 -0.32329 0 -6.283185 0 0 0 0 255 
-2.285847 -0.7466 -0.328283 -2.773344 -5.294241 -0.3984344 0 0 0 255 
-2.291598 -0.75 0.000319 -0.6190616 -6.221398 8.551672e-05 0 0 0 255 
-2.309297 -0.7466 0.000319 -2.801764 -5.293739 0.0003675893 0 0 0 255 
-2.268248 -0.75 0.326514 -0.6133325 -6.221272 0.08834746 0 0 0 255 
-2.273998 -0.75 0.000315 0 -6.283186 0 0 0 0 255 
-2.250748 -0.75 0.324011 -2.916437e-06 -6.283188 -7.161081e-07 0 0 0 255 
-1.718272 -0.750001 1.489432 -5.754474e-06 -6.283188 -3.851161e-06 0 0 0 255 
-2.068354 -0.75 0.944983 0 -6.283186 0 0 0 0 255 
-2.1817 -0.75 0.641001 0 -6.283184 0 0 0 0 255 
-2.1987 -0.75 0.646002 -0.5970843 -6.220733 0.1754771 0 0 0 255 
-2.215599 -0.746601 0.650908 -2.687915 -5.296508 0.7896982 0 0 0 255 
-2.084453 -0.75 0.952286 -0.5664147 -6.220658 0.2587282 0 0 0 255 
-2.100452 -0.746601 0.959589 -2.555374 -5.288712 1.167369 0 0 0 255 
-1.92771 -0.75 1.239264 -0.5238501 -6.220639 0.3368556 0 0 0 255 
-1.942508 -0.746601 1.248764 -2.358047 -5.29535 1.51517 0 0 0 255 
-1.912812 -0.75 1.229658 -3.242986e-05 -6.283184 6.791363e-06 0 0 0 255 
-1.73167 -0.750001 1.500933 -0.469187 -6.221037 0.4065739 0 0 0 255 
-1.744968 -0.746601 1.512533 -2.120928 -5.289788 1.838708 0 0 0 255 
-1.500435 -0.750001 1.732098 -0.4048937 -6.221566 0.4671735 0 0 0 255 
-1.488837 -0.750001 1.718796 0 -6.283186 0 0 0 0 255 
-1.512033 -0.746601 1.745501 -1.836948 -5.2895 2.120146 0 0 0 255 
-1.238705 -0.750001 1.928057 -0.3365764 -6.220648 0.523995 0 0 0 255 
-1.248204 -0.746601 1.94286 -1.517939 -5.2896 2.363131 0 0 0 255 
-0.951682 -0.750001 2.084715 -0.2586967 -6.220634 0.5665756 0 0 0 255 
-1.229108 -0.750001 1.913157 0 -6.283186 0 0 0 0 255 
-0.944284 -0.750001 2.068613 0 -6.283185 0 0 0 0 255 
-0.640267 -0.750001 2.181967 2.139444e-07 -6.283186 -7.202824e-07 0 0 0 255 
1.718729 -0.750001 1.488909 4.789256e-06 -6.283185 -5.19207e-06 0 0 0 255 
0.640933 -0.750001 2.181772 0 -6.283184 0 0 0 0 255 
0.000347 -0.750001 2.27397 0 -6.283182 0 0 0 0 255 
-0.323256 -0.750001 2.250818 0 -6.283185 0 0 0 0 255 
-0.645264 -0.750001 2.198868 -0.1740279 -6.221541 0.593347 0 0 0 255 
-0.650262 -0.746601 2.215868 -0.7908282 -5.286625 2.694585 0 0 0 255 
-0.325754 -0.750001 2.26832 -0.08816411 -6.221263 0.613436 0 0 0 255 
-0.328251 -0.746601 2.28582 -0.3972629 -5.295732 2.772084 0 0 0 255 
0.00035 -0.750001 2.29167 9.530096e-05 -6.220724 0.622387 0 0 0 255 
0.000353 -0.746601 2.309271 0.0004367381 -5.292709 2.805251 0 0 0 255 
0.326446 -0.750001 2.268221 0.08835133 -6.221251 0.6134422 0 0 0 255 
0.328949 -0.746601 2.285719 0.3980502 -5.296021 2.771708 0 0 0 255 
0.323944 -0.750001 2.250721 0 -6.283185 0 0 0 0 255 
0.645936 -0.750001 2.198672 0.1742005 -6.221548 0.5932577 0 0 0 255 
0.650938 -0.746601 2.215672 0.7916269 -5.286651 2.694288 0 0 0 255 
0.952319 -0.750001 2.084425 0.2589233 -6.220627 0.566497 0 0 0 255 
0.959621 -0.746601 2.100424 1.163802 -5.298466 2.546617 0 0 0 255 
0.944916 -0.750001 2.068327 0 -6.283183 0 0 0 0 255 
1.239195 -0.750001 1.927683 0.3357717 -6.220986 0.522522 0 0 0 255 
1.229693 -0.750001 1.912783 0 -6.283185 0 0 0 0 255 
1.248797 -0.746601 1.94248 1.517879 -5.289989 2.361133 0 0 0 255 
1.500965 -0.750001 1.731642 0.4049918 -6.221549 0.4672076 0 0 0 255 
1.512567 -0.746601 1.745041 1.837432 -5.289567 2.119568 0 0 0 255 
1.73213 -0.750001 1.500407 0.4692992 -6.221045 0.40638 0 0 0 255 
1.489363 -0.750001 1.718344 0 -6.283186 0 0 0 0 255 
1.745432 -0.746601 1.512005 2.121532 -5.289676 1.838097 0 0 0 255 
1.92799 -0.75 1.238678 0.5214536 -6.221234 0.3351343 0 0 0 255 
1.942892 -0.746601 1.248175 2.35645 -5.295707 1.513004 0 0 0 255 
2.084646 -0.75 0.951655 0.5635563 -6.221297 0.2573969 0 0 0 255 
1.913188 -0.75 1.229079 6.056517e-05 -6.283186 2.728946e-05 0 0 0 255 
2.068645 -0.75 0.944357 2.154411e-05 -6.283188 8.264367e-06 0 0 0 255 
2.1819 -0.75 0.640341 1.137331e-05 -6.283185 2.626543e-06 0 0 0 255 
2.250852 -0.75 0.323328 1.251576e-06 -6.283185 -4.963717e-07 0 0 0 255 
2.1989 -0.75 0.645336 0.5971385 -6.220733 0.1753027 0 0 0 255 
2.215801 -0.746601 0.650235 2.688051 -5.296634 0.7888201 0 0 0 255 
2.268352 -0.75 0.325827 0.6134233 -6.221259 0.08817178 0 0 0 255 
2.285851 -0.746601 0.328322 2.77303 -5.294378 0.3984823 0 0 0 255 
2.291603 -0.75 -0.000377 0.6190304 -6.221401 -0.0001051706 0 0 0 255 
2.274003 -0.75 -0.000375 0 -6.283185 0 0 0 0 255 
2.309303 -0.7466 -0.000379 2.80173 -5.293739 -0.0004576519 0 0 0 255 
2.268253 -0.75 -0.326475 0.6134723 -6.221248 -0.08830242 0 0 0 255 
2.285753 -0.7466 -0.328977 2.773242 -5.294178 -0.3992852 0 0 0 255 
2.198704 -0.75 -0.645963 0.5963565 -6.220887 -0.1752468 0 0 0 255 
2.250752 -0.75 -0.323971 0 -6.283185 0 0 0 0 255 
2.181705 -0.75 -0.64096 0 -6.283186 0 0 0 0 255 
2.215604 -0.7466 -0.650966 2.687048 -5.296771 -0.789583 0 0 0 255 
2.084358 -0.75 -0.952245 0.5625485 -6.221523 -0.256882 0 0 0 255 
2.100456 -0.7466 -0.959648 2.551762 -5.289445 -1.165805 0 0 0 255 
1.927614 -0.75 -1.239221 0.520035 -6.221559 -0.3343448 0 0 0 255 
1.942513 -0.7466 -1.248823 2.358799 -5.290281 -1.516858 0 0 0 255 
1.731675 -0.75 -1.500993 0.4708373 -6.220593 -0.4079748 0 0 0 255 
1.912816 -0.75 -1.229719 0 -6.283185 0 0 0 0 255 
1.718277 -0.75 -1.489389 0 -6.283184 0 0 0 0 255 
1.488842 -0.75 -1.718755 0 -6.283184 0 0 0 0 255 
1.50044 -0.75 -1.732158 0.4064245 -6.221039 -0.4693082 0 0 0 255 
1.512038 -0.7466 -1.745458 1.838264 -5.289555 -2.121586 0 0 0 255 
1.23861 -0.75 -1.928018 0.3340661 -6.22158 -0.520107 0 0 0 255 
1.248208 -0.7466 -1.942919 1.515996 -5.290313 -2.35945 0 0 0 255 
1.744974 -0.7466 -1.512495 2.118014 -5.296172 -1.83494 0 0 0 255 
1.752972 -0.7365 -1.519495 3.918113 -2.853025 -3.396775 0 0 0 255 
1.951412 -0.7365 -1.254526 4.36672 -2.84822 -2.80755 0 0 0 255 
2.110055 -0.7365 -0.96405 4.724366 -2.837336 -2.15887 0 0 0 255 
2.225803 -0.7365 -0.653969 4.975456 -2.847618 -1.463049 0 0 0 255 
2.296252 -0.736501 -0.330478 5.135083 -2.848827 -0.7391179 0 0 0 255 
2.319903 -0.736501 -0.000381 5.189716 -2.842237 -0.001002312 0 0 0 255 
2.100748 -0.746601 0.958952 2.553217 -5.289188 1.165469 0 0 0 255 
1.951792 -0.736501 1.253973 4.362844 -2.852803 2.803405 0 0 0 255 
1.753433 -0.736501 1.518904 3.924381 -2.846971 3.40007 0 0 0 255 
0.65394 -0.736501 2.225771 1.464906 -2.843888 4.984547 0 0 0 255 
-0.958979 -0.746601 2.100716 -1.163034 -5.298348 2.54712 0 0 0 255 
-0.65326 -0.736501 2.225968 -1.463366 -2.844192 4.984971 0 0 0 255 
-1.951407 -0.736501 1.254566 -4.361872 -2.852923 2.80467 0 0 0 255 
-2.110051 -0.736501 0.963991 -4.723571 -2.844535 2.157797 0 0 0 255 
-2.225798 -0.736501 0.653906 -4.975023 -2.852797 1.462127 0 0 0 255 
-2.296247 -0.736501 0.330519 -5.135091 -2.848829 0.7393116 0 0 0 255 
-2.285748 -0.746601 0.329016 -2.773149 -5.294085 0.3993544 0 0 0 255 
-1.489358 -0.75 -1.718305 0 -6.283185 0 0 0 0 255 
-0.944911 -0.75 -2.068287 0 -6.283186 0 0 0 0 255 
0.944289 -0.75 -2.068573 0 -6.283185 0 0 0 0 255 
0.654265 0.7016 -2.229429 1.764639 0 -6.013536 0 0 0 255 
0.964882 0.7016 -2.113576 2.603474 0 -5.700826 0 0 0 255 
0.654265 0.7197 -2.229429 1.737568 0.6409187 -5.921444 0 0 0 255 
0.653265 0.7365 -2.226028 1.459672 2.852744 -4.975494 0 0 0 255 
0.330354 0.7197 -2.299779 0.87793 0.6417584 -6.108417 0 0 0 255 
0.964882 0.7197 -2.113576 2.563812 0.6388131 -5.614095 0 0 0 255 
1.255806 0.7197 -1.954719 3.337978 0.6275588 -5.194798 0 0 0 255 
0.963383 0.7365 -2.110376 2.156575 2.844312 -4.724201 0 0 0 255 
1.253907 0.7365 -1.95182 2.807364 2.833136 -4.369829 0 0 0 255 
0.958984 0.7466 -2.100776 1.165466 5.289183 -2.553356 0 0 0 255 
1.248208 0.7466 -1.942918 1.516758 5.290112 -2.360775 0 0 0 255 
0.650267 0.7466 -2.215829 0.7883045 5.296449 -2.68775 0 0 0 255 
0.951687 0.75 -2.084674 0.2574491 6.221255 -0.5637498 0 0 0 255 
1.23871 0.75 -1.928018 0.3352517 6.221191 -0.521634 0 0 0 255 
0.944289 0.75 -2.068572 0 6.283183 0 0 0 0 255 
0.645269 0.75 -2.198928 0.1748997 6.220883 -0.5964901 0 0 0 255 
0.325759 0.75 -2.26838 0.08857445 6.220556 -0.6168802 0 0 0 255 
0.640272 0.75 -2.181926 0 6.283186 0 0 0 0 255 
0.323261 0.75 -2.250879 0 6.283183 0 0 0 0 255 
-0.323939 0.75 -2.250779 0 6.283184 0 0 0 0 255 
-0.944911 0.75 -2.068286 0 6.283185 0 0 0 0 255 
-1.913184 0.75 -1.229139 3.025987e-07 6.283185 3.044332e-07 0 0 0 255 
1.488842 0.75 -1.718755 -2.04469e-07 6.283181 3.774226e-07 0 0 0 255 
-0.000342 0.75 -2.273929 0 6.283184 0 0 0 0 255 
-0.000345 0.75 -2.291629 -9.43616e-05 6.221376 -0.6191477 0 0 0 255 
-0.000347 0.7466 -2.309329 -0.000786003 5.282507 -2.8126 0 0 0 255 
-0.326441 0.75 -2.268279 -0.08874767 6.220576 -0.6167588 0 0 0 255 
-0.328944 0.7466 -2.28568 -0.3985028 5.295247 -2.774823 0 0 0 255 
-0.645931 0.75 -2.198732 -0.1750879 6.220876 -0.5964504 0 0 0 255 
-0.650933 0.7466 -2.215631 -0.7891206 5.2967 -2.687269 0 0 0 255 
-0.952313 0.75 -2.084386 -0.2576343 6.221248 -0.5637178 0 0 0 255 
-0.640928 0.75 -2.181733 0 6.283185 0 0 0 0 255 
-0.959616 0.7466 -2.100484 -1.166225 5.289289 -2.552935 0 0 0 255 
-1.23929 0.75 -1.927642 -0.3353882 6.2212 -0.5214917 0 0 0 255 
-1.248792 0.7466 -1.942541 -1.517528 5.289954 -2.360426 0 0 0 255 
-1.50096 0.75 -1.731702 -0.4065362 6.221043 -0.4691776 0 0 0 255 
-1.229687 0.75 -1.912742 0 6.283185 0 0 0 0 255 
-1.489358 0.75 -1.718305 0 6.283184 0 0 0 0 255 
-1.718723 0.75 -1.48887 0 6.283187 0 0 0 0 255 
-1.732125 0.75 -1.500467 -0.4708322 6.220608 -0.4079071 0 0 0 255 
-1.745427 0.7466 -1.511964 -2.118407 5.296409 -1.834284 0 0 0 255 
-1.928086 0.75 -1.238637 -0.5225684 6.220996 -0.3355729 0 0 0 255 
-1.942888 0.7466 -1.248235 -2.361571 5.289649 -1.517678 0 0 0 255 
-2.084642 0.75 -0.951614 -0.5625831 6.221543 -0.2565959 0 0 0 255 
-2.100744 0.7466 -0.959011 -2.552322 5.289266 -1.165043 0 0 0 255 
-2.198895 0.75 -0.645296 -0.5964346 6.220886 -0.1750735 0 0 0 255 
-2.068641 0.75 -0.944316 0 6.283185 0 0 0 0 255 
-2.181895 0.75 -0.6403 0 6.283186 0 0 0 0 255 
-2.273998 0.75 0.000315 0 6.283185 0 0 0 0 255 
-2.250846 0.75 -0.323289 0 6.283187 0 0 0 0 255 
-2.268348 0.75 -0.325786 -0.6135552 6.22124 -0.08812308 0 0 0 255 
-2.285847 0.7466 -0.328283 -2.773449 5.294134 -0.3984461 0 0 0 255 
-2.291598 0.75 0.000319 -0.6190646 6.221397 9.053759e-05 0 0 0 255 
-2.309297 0.7466 0.000319 -2.801981 5.293516 0.0003756094 0 0 0 255 
-2.268248 0.75 0.326514 -0.6135084 6.221235 0.0883728 0 0 0 255 
-2.285748 0.7466 0.329016 -2.773414 5.293948 0.3993965 0 0 0 255 
-2.1987 0.75 0.646002 -0.5972545 6.220695 0.1755299 0 0 0 255 
-2.250748 0.75 0.324011 0 6.283185 0 0 0 0 255 
-2.1817 0.75 0.641001 0 6.283185 0 0 0 0 255 
-1.912812 0.75 1.229659 2.205854e-06 6.283182 6.585636e-06 0 0 0 255 
-2.068354 0.75 0.944983 0 6.283184 0 0 0 0 255 
-2.084353 0.75 0.952286 -0.5636408 6.221264 0.2576354 0 0 0 255 
-2.100452 0.7466 0.95959 -2.553072 5.289087 1.166339 0 0 0 255 
-1.92771 0.75 1.239264 -0.524065 6.220593 0.3369108 0 0 0 255 
-1.942508 0.7466 1.248765 -2.358242 5.295232 1.515222 0 0 0 255 
-1.73167 0.749999 1.500933 -0.469034 6.221077 0.4064517 0 0 0 255 
-1.744968 0.7466 1.512534 -2.120918 5.289636 1.838716 0 0 0 255 
-1.500435 0.749999 1.732098 -0.4047768 6.221602 0.4670396 0 0 0 255 
-1.718272 0.749999 1.489432 -1.562611e-05 6.283187 2.922913e-05 0 0 0 255 
-1.488837 0.749999 1.718796 0 6.283185 0 0 0 0 255 
-1.229108 0.749999 1.913157 0 6.283188 0 0 0 0 255 
-0.944284 0.749999 2.068614 -1.008548e-06 6.283186 4.355036e-06 0 0 0 255 
0.323944 0.749999 2.250722 1.575593e-07 6.283185 1.094786e-06 0 0 0 255 
-0.640267 0.749999 2.181967 0 6.283186 0 0 0 0 255 
-0.951682 0.749999 2.084716 -0.258702 6.220628 0.5665985 0 0 0 255 
-1.238705 0.749999 1.928057 -0.3364804 6.220684 0.5238436 0 0 0 255 
-0.958979 0.746599 2.100716 -1.16304 5.298344 2.547146 0 0 0 255 
-0.645264 0.749999 2.198869 -0.1740247 6.221544 0.5933369 0 0 0 255 
-0.650262 0.746599 2.215869 -0.7908571 5.286526 2.694668 0 0 0 255 
-0.325754 0.749999 2.268321 -0.08816262 6.221266 0.6134257 0 0 0 255 
-0.323256 0.749999 2.250819 0 6.283186 0 0 0 0 255 
-0.328251 0.746599 2.285821 -0.3972616 5.295732 2.772074 0 0 0 255 
0.00035 0.749999 2.291671 9.505264e-05 6.220725 0.6223762 0 0 0 255 
0.000353 0.746599 2.309272 0.0004357025 5.292712 2.805242 0 0 0 255 
0.000347 0.749999 2.27397 0 6.283186 0 0 0 0 255 
0.326446 0.749999 2.268222 0.08835094 6.221258 0.6134329 0 0 0 255 
0.328949 0.746599 2.28572 0.3980734 5.295895 2.771822 0 0 0 255 
0.645936 0.749999 2.198672 0.1741975 6.221552 0.5932465 0 0 0 255 
0.650938 0.746599 2.215672 0.791593 5.286755 2.694187 0 0 0 255 
0.952319 0.749999 2.084426 0.2588586 6.220637 0.5664831 0 0 0 255 
0.640933 0.749999 2.181773 0 6.283185 0 0 0 0 255 
0.944916 0.749999 2.068328 0 6.283184 0 0 0 0 255 
1.229693 0.749999 1.912783 0 6.283185 0 0 0 0 255 
1.489363 0.749999 1.718344 2.125669e-06 6.283184 3.982948e-06 0 0 0 255 
1.718729 0.749999 1.488909 2.269583e-06 6.283185 1.052943e-05 0 0 0 255 
2.1819 0.75 0.640341 -1.461916e-06 6.283183 3.875092e-07 0 0 0 255 
1.500965 0.749999 1.731642 0.4049264 6.221601 0.4669256 0 0 0 255 
1.239295 0.749999 1.927683 0.3366847 6.220663 0.5238171 0 0 0 255 
1.512567 0.7466 1.745041 1.837532 5.289475 2.11951 0 0 0 255 
1.73213 0.749999 1.500407 0.4691522 6.221083 0.4062783 0 0 0 255 
1.745432 0.7466 1.512005 2.121488 5.289594 1.838069 0 0 0 255 
1.92799 0.75 1.238678 0.521593 6.221199 0.3352349 0 0 0 255 
1.942892 0.7466 1.248175 2.356677 5.295567 1.51315 0 0 0 255 
2.084646 0.75 0.951655 0.5637175 6.221261 0.2574709 0 0 0 255 
1.913188 0.75 1.229079 -4.18842e-05 6.283186 -1.358763e-05 0 0 0 255 
2.068645 0.75 0.944357 0 6.283186 0 0 0 0 255 
2.100748 0.7466 0.958952 2.553463 5.289049 1.165581 0 0 0 255 
2.1989 0.75 0.645337 0.5973187 6.220693 0.1753571 0 0 0 255 
2.215801 0.7466 0.650235 2.68832 5.296492 0.7888975 0 0 0 255 
2.268352 0.75 0.325827 0.6135993 6.221224 0.08819707 0 0 0 255 
2.285851 0.7466 0.328322 2.773296 5.294242 0.3985245 0 0 0 255 
2.291603 0.75 -0.000377 0.6190335 6.221401 -0.0001001358 0 0 0 255 
2.250852 0.75 0.323329 0 6.283186 0 0 0 0 255 
2.274003 0.75 -0.000375 0 6.283186 0 0 0 0 255 
2.250752 0.75 -0.32397 0 6.283185 0 0 0 0 255 
2.181705 0.75 -0.64096 0 6.283185 0 0 0 0 255 
2.198704 0.75 -0.645963 0.5963565 6.220887 -0.1752468 0 0 0 255 
2.068359 0.75 -0.944944 0 6.283187 0 0 0 0 255 
2.084358 0.75 -0.952245 0.5625485 6.221524 -0.256882 0 0 0 255 
1.912816 0.75 -1.229719 0 6.283184 0 0 0 0 255 
1.927614 0.75 -1.239221 0.520035 6.221558 -0.3343448 0 0 0 255 
1.718277 0.75 -1.489389 0 6.283186 0 0 0 0 255 
1.731675 0.75 -1.500993 0.4708373 6.220593 -0.4079748 0 0 0 255 
1.744974 0.7466 -1.512495 2.118014 5.296172 -1.83494 0 0 0 255 
1.50044 0.75 -1.732158 0.4064175 6.221036 -0.4693319 0 0 0 255 
1.512038 0.7466 -1.745458 1.838289 5.289468 -2.121661 0 0 0 255 
1.518937 0.7365 -1.753459 3.399508 2.846795 -3.924621 0 0 0 255 
1.752972 0.7365 -1.519495 3.91811 2.853023 -3.396778 0 0 0 255 
1.521236 0.7197 -1.75616 4.039877 0.6412781 -4.664937 0 0 0 255 
1.755672 0.7197 -1.521795 4.663299 0.6412715 -4.041925 0 0 0 255 
1.954412 0.7197 -1.256425 5.191098 0.6417172 -3.336586 0 0 0 255 
2.113256 0.7197 -0.96545 5.615726 0.6321636 -2.564718 0 0 0 255 
1.951412 0.7365 -1.254526 4.36673 2.84813 -2.807562 0 0 0 255 
2.110055 0.7365 -0.96405 4.724365 2.837333 -2.15887 0 0 0 255 
1.942513 0.7466 -1.248823 2.358799 5.290281 -1.516858 0 0 0 255 
2.100456 0.7466 -0.959648 2.551764 5.289447 -1.165804 0 0 0 255 
2.215604 0.7466 -0.650966 2.687076 5.296741 -0.7895983 0 0 0 255 
2.285753 0.7466 -0.328977 2.773347 5.294069 -0.3992978 0 0 0 255 
2.225803 0.7365 -0.653968 4.975482 2.847643 -1.463042 0 0 0 255 
2.296252 0.7365 -0.330478 5.135184 2.848766 -0.73913 0 0 0 255 
2.229203 0.7197 -0.654867 5.922211 0.6359756 -1.739891 0 0 0 255 
2.299752 0.7197 -0.33098 6.108599 0.6393844 -0.8791702 0 0 0 255 
2.323403 0.7197 -0.000383 6.173295 0.6334059 -0.001176963 0 0 0 255 
2.299853 0.7197 0.330321 6.108894 0.6392232 0.8773783 0 0 0 255 
2.319903 0.736499 -0.000381 5.189925 2.842112 -0.0009980872 0 0 0 255 
2.296353 0.736499 0.329823 5.135123 2.849015 0.7377545 0 0 0 255 
2.309303 0.7466 -0.000379 2.801947 5.293517 -0.0004497264 0 0 0 255 
2.226001 0.736499 0.653233 4.975436 2.852862 1.460647 0 0 0 255 
2.110348 0.736499 0.963351 4.724339 2.844517 2.156427 0 0 0 255 
2.229402 0.719699 0.654233 5.921299 0.6409139 1.738527 0 0 0 255 
2.113549 0.719699 0.96485 5.614503 0.6392394 2.563043 0 0 0 255 
2.229402 0.7016 0.654233 6.013339 -2.815514e-07 1.765553 0 0 0 255 
1.954792 0.719699 1.255873 5.191819 0.6419743 3.335179 0 0 0 255 
1.756133 0.719699 1.521204 4.664229 0.6412889 4.04097 0 0 0 255 
1.951792 0.736499 1.253973 4.362926 2.852743 2.803458 0 0 0 255 
1.753433 0.736499 1.518904 3.924459 2.846915 3.400133 0 0 0 255 
1.519468 0.736499 1.753039 3.402157 2.833737 3.925106 0 0 0 255 
1.254498 0.736499 1.95138 2.807392 2.848517 4.367272 0 0 0 255 
1.521769 0.719699 1.755641 4.044617 0.6288739 4.665138 0 0 0 255 
1.256399 0.719699 1.954381 3.337169 0.6420233 5.190841 0 0 0 255 
1.256399 0.701599 1.954381 3.389639 -9.936789e-07 5.271441 0 0 0 255 
0.965523 0.719699 2.113324 2.564989 0.6390147 5.613349 0 0 0 255 
0.65494 0.719699 2.22917 1.739544 0.6404688 5.92125 0 0 0 255 
0.964022 0.736499 2.110125 2.153559 2.852737 4.714581 0 0 0 255 
0.65394 0.736499 2.225772 1.464877 2.843809 4.984482 0 0 0 255 
0.959621 0.746599 2.100425 1.163809 5.298368 2.546735 0 0 0 255 
1.248797 0.7466 1.942481 1.518667 5.289497 2.362701 0 0 0 255 
0.330551 0.736499 2.296221 0.7393833 2.849932 5.133553 0 0 0 255 
0.000354 0.736499 2.319869 0.0006320646 2.842128 5.190061 0 0 0 255 
0.331051 0.719699 2.299719 0.879247 0.6389202 6.108705 0 0 0 255 
0.000355 0.719699 2.32337 0.0007975867 0.6335319 6.173271 0 0 0 255 
0.000355 0.701599 2.32337 0.0009562522 0 6.267247 0 0 0 255 
-0.330349 0.719699 2.29982 -0.8772441 0.6391746 6.108918 0 0 0 255 
-0.65426 0.719699 2.229369 -1.737722 0.6409255 5.921661 0 0 0 255 
-0.329849 0.736499 2.296321 -0.7376907 2.849856 5.13394 0 0 0 255 
-0.65326 0.736499 2.225968 -1.463405 2.844106 4.985062 0 0 0 255 
-0.963378 0.736499 2.110417 -2.152143 2.852618 4.715262 0 0 0 255 
-1.253902 0.736499 1.951762 -2.806068 2.847965 4.368128 0 0 0 255 
-0.964877 0.719699 2.113616 -2.563302 0.6388968 5.614151 0 0 0 255 
-1.255801 0.719699 1.95476 -3.335697 0.6414134 5.191977 0 0 0 255 
-1.255801 0.701599 1.95476 -3.388041 0 5.272469 0 0 0 255 
-1.521231 0.719699 1.756102 -4.043231 0.6286444 4.666414 0 0 0 255 
-1.521231 0.701599 1.756102 -4.103556 -6.433324e-07 4.736926 0 0 0 255 
-1.755667 0.719699 1.521735 -4.663032 0.6411675 4.042406 0 0 0 255 
-1.518932 0.736499 1.7535 -3.401034 2.833442 3.926198 0 0 0 255 
-1.752967 0.736499 1.519436 -3.923398 2.846828 3.40133 0 0 0 255 
-1.512033 0.7466 1.745501 -1.836911 5.289419 2.120104 0 0 0 255 
-1.248204 0.7466 1.94286 -1.517866 5.289606 2.363011 0 0 0 255 
-1.951407 0.736499 1.254567 -4.361961 2.85277 2.804734 0 0 0 255 
-2.110051 0.736499 0.963992 -4.723669 2.844404 2.157851 0 0 0 255 
-1.954407 0.719699 1.256466 -5.19083 0.6418841 3.336753 0 0 0 255 
-2.113251 0.719699 0.965491 -5.613766 0.6390944 2.56475 0 0 0 255 
-2.229198 0.719699 0.65491 -5.920757 0.6409506 1.740334 0 0 0 255 
-2.299747 0.7197 0.331019 -6.108613 0.6392711 0.879233 0 0 0 255 
-2.225798 0.736499 0.653906 -4.975115 2.852793 1.462143 0 0 0 255 
-2.296247 0.736499 0.330519 -5.135186 2.848805 0.7393283 0 0 0 255 
-2.215599 0.7466 0.650908 -2.688175 5.296369 0.789773 0 0 0 255 
-2.319897 0.736499 0.000323 -5.189926 2.842113 0.0005912781 0 0 0 255 
-2.296347 0.7365 -0.329782 -5.135345 2.848783 -0.7375651 0 0 0 255 
-2.323397 0.7197 0.000323 -6.173297 0.6334058 0.0007082522 0 0 0 255 
-2.299847 0.7197 -0.330282 -6.108882 0.6393361 -0.8772879 0 0 0 255 
-2.299847 0.7016 -0.330282 -6.203477 1.930076e-07 -0.8908938 0 0 0 255 
-2.229398 0.7197 -0.654191 -5.922673 0.6362394 -1.738073 0 0 0 255 
-2.229398 0.7016 -0.654191 -6.01334 2.815543e-07 -1.765544 0 0 0 255 
-2.113544 0.7197 -0.964809 -5.6165 0.6321716 -2.563021 0 0 0 255 
-2.225996 0.7365 -0.653293 -4.975827 2.847973 -1.461511 0 0 0 255 
-2.110343 0.7365 -0.963409 -4.725188 2.83718 -2.157495 0 0 0 255 
-2.215796 0.7466 -0.650293 -2.68728 5.296804 -0.7887532 0 0 0 255 
-1.951788 0.7365 -1.253934 -4.367687 2.848099 -2.806291 0 0 0 255 
-1.753428 0.7365 -1.518964 -3.918952 2.853354 -3.395408 0 0 0 255 
-1.954788 0.7197 -1.255834 -5.192084 0.6418056 -3.335007 0 0 0 255 
-1.756128 0.7197 -1.521265 -4.6645 0.6413835 -4.040503 0 0 0 255 
-1.521764 0.7197 -1.755701 -4.041258 0.6415018 -4.663663 0 0 0 255 
-1.256394 0.7197 -1.95434 -3.339483 0.627901 -5.193726 0 0 0 255 
-1.519463 0.7365 -1.753 -3.400631 2.847074 -3.923527 0 0 0 255 
-1.254493 0.7365 -1.95144 -2.808722 2.833346 -4.369078 0 0 0 255 
-1.512562 0.7466 -1.745 -1.838882 5.289536 -2.121028 0 0 0 255 
-0.964017 0.7365 -2.110084 -2.157948 2.844368 -4.723463 0 0 0 255 
-0.653935 0.7365 -2.225831 -1.461231 2.852547 -4.974908 0 0 0 255 
-0.965518 0.7197 -2.113283 -2.565513 0.6387799 -5.613329 0 0 0 255 
-0.654935 0.7197 -2.22923 -1.739406 0.6405713 -5.921002 0 0 0 255 
-0.330545 0.7365 -2.29618 -0.7389587 2.850459 -5.133636 0 0 0 255 
-0.000349 0.7365 -2.319829 -0.001366504 2.850583 -5.197339 0 0 0 255 
0.329755 0.7365 -2.296279 0.7367277 2.851655 -5.135272 0 0 0 255 
0.328256 0.7466 -2.285779 0.3989569 5.293834 -2.776243 0 0 0 255 
-2.113544 0.7016 -0.964809 -5.701446 0 -2.602339 0 0 0 255 
2.268253 0.75 -0.326475 0.6134723 6.221248 -0.08830242 0 0 0 255 
1.229113 0.75 -1.913116 0 6.283186 0 0 0 0 255 
1.255806 0.7016 -1.954719 3.387447 0 -5.272916 0 0 0 255 
3 2 1 15 
3 0 7 1 
3 519 0 2 
3 3 4 0 
3 6 5 4 
3 4 8 7 
3 11 7 8 
3 9 1 7 
3 10 11 149 
3 10 12 9 
3 12 15 1 
3 16 12 13 
3 14 20 15 
3 18 14 16 
3 175 17 18 
3 17 22 20 
3 21 15 20 
3 23 20 22 
3 25 22 24 
3 19 24 22 
3 28 24 27 
3 26 27 24 
3 31 27 30 
3 29 30 27 
3 524 30 32 
3 33 32 30 
3 36 33 34 
3 34 29 177 
3 39 35 36 
3 35 38 32 
3 37 41 38 
3 42 37 39 
3 40 46 41 
3 42 43 40 
3 44 45 43 
3 43 48 46 
3 47 41 46 
3 49 46 48 
3 51 48 50 
3 45 50 48 
3 54 50 53 
3 52 53 50 
3 57 53 56 
3 55 56 53 
3 60 56 59 
3 58 59 56 
3 481 59 61 
3 62 61 59 
3 291 62 58 
3 63 64 62 
3 64 67 61 
3 65 66 64 
3 66 72 67 
3 68 69 66 
3 70 71 69 
3 69 74 72 
3 73 67 72 
3 75 72 74 
3 77 74 76 
3 71 76 74 
3 470 76 78 
3 79 78 76 
3 80 81 79 
3 80 71 290 
3 81 86 78 
3 82 83 81 
3 84 85 83 
3 83 88 86 
3 87 78 86 
3 89 86 88 
3 91 88 90 
3 85 90 88 
3 459 90 92 
3 93 92 90 
3 96 93 94 
3 94 85 288 
3 95 100 92 
3 98 95 96 
3 287 97 98 
3 97 102 100 
3 101 92 100 
3 103 100 102 
3 105 102 104 
3 99 104 102 
3 108 104 107 
3 106 107 104 
3 450 107 109 
3 110 109 107 
3 286 110 106 
3 111 112 110 
3 115 112 113 
3 112 117 109 
3 284 114 115 
3 114 119 117 
3 118 109 117 
3 120 117 119 
3 122 119 121 
3 116 121 119 
3 125 121 124 
3 123 124 121 
3 128 124 127 
3 126 127 124 
3 131 127 130 
3 129 130 127 
3 134 130 133 
3 132 133 130 
3 137 133 136 
3 135 136 133 
3 527 136 138 
3 139 138 136 
3 140 141 139 
3 140 135 279 
3 142 143 141 
3 141 144 138 
3 143 147 144 
3 145 146 143 
3 146 8 147 
3 148 11 146 
3 151 148 145 
3 150 149 148 
3 153 151 154 
3 153 152 150 
3 153 298 155 
3 158 153 155 
3 159 156 158 
3 157 152 156 
3 158 155 159 
3 160 161 159 
3 159 298 160 
3 159 219 162 
3 159 297 163 
3 163 164 159 
3 165 159 164 
3 166 164 163 
3 157 167 168 
3 166 167 165 
3 169 13 167 
3 167 10 168 
3 166 170 169 
3 170 16 169 
3 171 172 170 
3 170 175 18 
3 173 174 172 
3 172 176 175 
3 176 19 175 
3 174 177 176 
3 176 29 26 
3 178 34 177 
3 180 174 181 
3 180 179 178 
3 182 181 296 
3 184 180 182 
3 183 187 179 
3 186 183 184 
3 188 186 190 
3 185 189 187 
3 188 193 189 
3 192 188 190 
3 197 191 192 
3 194 193 191 
3 194 295 195 
3 196 197 198 
3 198 192 186 
3 162 199 198 
3 198 208 200 
3 200 201 198 
3 202 198 201 
3 198 186 162 
3 204 201 200 
3 202 205 203 
3 196 203 295 
3 206 200 208 
3 204 207 205 
3 209 207 206 
3 209 208 199 
3 211 199 212 
3 211 210 209 
3 214 212 217 
3 214 213 211 
3 216 215 214 
3 216 217 218 
3 199 218 217 
3 217 212 199 
3 224 218 219 
3 219 252 220 
3 220 221 219 
3 219 232 222 
3 222 223 219 
3 226 219 223 
3 216 225 289 
3 226 225 224 
3 228 227 226 
3 222 226 223 
3 230 222 232 
3 228 231 229 
3 230 234 231 
3 221 230 232 
3 237 233 221 
3 235 234 233 
3 238 236 235 
3 238 237 239 
3 241 239 244 
3 241 240 238 
3 241 245 242 
3 220 241 244 
3 220 239 221 
3 249 243 220 
3 246 245 243 
3 248 247 246 
3 248 249 250 
3 250 249 220 
3 253 250 251 
3 220 251 250 
3 252 253 251 
3 255 254 253 
3 253 285 248 
3 258 255 252 
3 257 256 255 
3 260 258 263 
3 257 261 259 
3 262 261 260 
3 262 263 264 
3 252 264 263 
3 263 258 252 
3 161 262 264 
3 266 265 262 
3 268 161 271 
3 268 267 266 
3 268 278 269 
3 270 271 272 
3 272 271 161 
3 273 270 272 
3 160 272 161 
3 160 274 273 
3 274 277 275 
3 270 275 278 
3 298 276 160 
3 154 277 276 
3 277 140 275 
3 151 142 277 
3 275 279 278 
3 278 280 269 
3 280 135 132 
3 269 281 267 
3 281 132 129 
3 267 282 265 
3 282 129 126 
3 283 126 123 
3 261 282 283 
3 259 283 284 
3 283 116 284 
3 259 115 256 
3 256 113 254 
3 285 113 111 
3 247 111 286 
3 245 286 287 
3 286 99 287 
3 242 287 98 
3 240 98 96 
3 236 96 94 
3 239 237 221 
3 236 288 234 
3 234 84 231 
3 231 82 229 
3 227 82 80 
3 225 80 290 
3 289 290 70 
3 289 68 215 
3 215 65 213 
3 213 63 210 
3 210 291 207 
3 207 292 205 
3 291 55 292 
3 205 293 203 
3 292 52 293 
3 295 293 294 
3 294 52 45 
3 195 294 44 
3 195 42 193 
3 193 39 189 
3 192 190 186 
3 187 39 36 
3 179 36 34 
3 186 182 162 
3 182 296 162 
3 296 173 162 
3 162 171 297 
3 297 166 163 
3 168 149 152 
3 299 144 147 
3 5 147 8 
3 301 300 299 
3 303 299 5 
3 302 303 522 
3 306 301 302 
3 304 527 300 
3 307 304 306 
3 308 307 306 
3 308 302 310 
3 311 309 308 
3 314 308 310 
3 526 311 313 
3 313 314 316 
3 314 523 315 
3 314 317 316 
3 313 316 317 
3 322 318 317 
3 317 330 319 
3 319 320 317 
3 321 313 317 
3 315 322 317 
3 320 321 317 
3 322 325 318 
3 323 523 324 
3 323 326 325 
3 318 327 330 
3 327 326 328 
3 327 331 329 
3 327 319 330 
3 329 333 332 
3 329 335 319 
3 332 515 334 
3 332 336 335 
3 319 336 320 
3 334 337 336 
3 336 337 320 
3 338 320 337 
3 338 341 340 
3 338 515 339 
3 340 345 320 
3 340 343 342 
3 342 506 344 
3 345 344 346 
3 320 346 347 
3 344 348 346 
3 346 348 347 
3 349 347 348 
3 351 350 352 
3 344 350 349 
3 351 354 353 
3 347 353 356 
3 353 495 355 
3 356 355 357 
3 347 357 358 
3 355 359 357 
3 357 359 358 
3 360 358 359 
3 360 363 362 
3 355 361 360 
3 358 364 367 
3 364 363 365 
3 366 365 485 
3 367 366 368 
3 370 367 368 
3 368 374 369 
3 368 369 370 
3 358 370 371 
3 370 379 371 
3 369 373 370 
3 370 376 372 
3 373 486 375 
3 373 377 376 
3 378 377 380 
3 372 378 379 
3 378 383 379 
3 381 380 382 
3 381 385 384 
3 383 384 371 
3 384 389 371 
3 384 387 386 
3 388 387 464 
3 386 390 389 
3 371 390 392 
3 388 391 390 
3 390 391 392 
3 371 394 321 
3 396 392 391 
3 395 393 392 
3 394 393 403 
3 396 397 395 
3 395 399 398 
3 400 399 401 
3 398 403 393 
3 402 401 405 
3 403 402 404 
3 403 404 394 
3 404 406 394 
3 406 405 407 
3 406 411 394 
3 408 407 409 
3 410 409 445 
3 408 412 411 
3 414 411 412 
3 412 525 413 
3 412 413 414 
3 394 414 321 
3 414 418 321 
3 415 416 414 
3 413 415 414 
3 416 419 418 
3 418 421 420 
3 418 420 321 
3 421 321 420 
3 421 424 423 
3 419 422 421 
3 321 312 526 
3 312 424 309 
3 424 426 425 
3 309 425 307 
3 425 428 427 
3 425 305 307 
3 427 134 137 
3 305 137 527 
3 431 428 426 
3 428 131 134 
3 429 128 131 
3 432 429 431 
3 433 432 431 
3 422 431 426 
3 419 434 433 
3 417 435 434 
3 434 437 432 
3 415 436 435 
3 436 437 435 
3 438 439 437 
3 437 430 432 
3 439 122 125 
3 430 125 128 
3 438 441 440 
3 440 120 122 
3 441 118 120 
3 443 442 441 
3 445 444 443 
3 445 438 436 
3 410 436 525 
3 444 448 442 
3 409 446 444 
3 405 446 407 
3 447 448 446 
3 448 108 450 
3 442 450 118 
3 453 449 447 
3 449 105 108 
3 451 103 105 
3 453 452 451 
3 399 453 401 
3 401 447 405 
3 454 457 452 
3 397 454 399 
3 465 455 397 
3 455 458 457 
3 457 459 101 
3 452 101 103 
3 456 460 458 
3 458 91 459 
3 460 89 91 
3 462 461 460 
3 464 463 462 
3 464 456 465 
3 388 465 396 
3 466 461 463 
3 387 466 463 
3 385 467 466 
3 467 468 466 
3 468 470 87 
3 461 87 89 
3 473 469 467 
3 469 77 470 
3 471 75 77 
3 473 472 471 
3 377 473 380 
3 380 467 382 
3 475 472 474 
3 375 474 377 
3 375 476 475 
3 476 477 475 
3 477 479 73 
3 472 73 75 
3 483 478 476 
3 478 481 479 
3 480 60 481 
3 484 480 483 
3 485 484 483 
3 486 483 476 
3 374 485 486 
3 487 482 484 
3 365 487 484 
3 363 488 487 
3 487 490 489 
3 489 54 57 
3 482 57 60 
3 488 491 490 
3 490 51 54 
3 491 49 51 
3 494 491 493 
3 354 493 495 
3 361 493 488 
3 496 492 494 
3 352 494 354 
3 352 497 496 
3 497 498 496 
3 498 500 47 
3 492 47 49 
3 497 501 499 
3 499 502 500 
3 501 524 502 
3 504 503 501 
3 343 504 506 
3 350 504 497 
3 505 509 503 
3 341 505 343 
3 339 507 341 
3 507 510 509 
3 509 28 31 
3 503 31 524 
3 513 510 508 
3 510 25 28 
3 511 23 25 
3 513 512 511 
3 333 513 515 
3 515 508 339 
3 514 518 512 
3 331 514 333 
3 331 517 516 
3 516 519 518 
3 518 2 21 
3 512 21 23 
3 517 3 519 
3 328 520 517 
3 326 521 520 
3 521 3 520 
3 522 6 521 
3 324 522 521 
3 310 522 523 
3 502 32 38 
3 500 38 41 
3 479 61 67 
3 379 383 371 
3 320 358 371 
3 300 138 144 
3 2 0 1 
3 0 4 7 
3 519 3 0 
3 3 6 4 
3 6 303 5 
3 4 5 8 
3 11 9 7 
3 9 12 1 
3 10 9 11 
3 10 13 12 
3 12 14 15 
3 16 14 12 
3 14 17 20 
3 18 17 14 
3 175 19 17 
3 17 19 22 
3 21 2 15 
3 23 21 20 
3 25 23 22 
3 19 26 24 
3 28 25 24 
3 26 29 27 
3 31 28 27 
3 29 33 30 
3 524 31 30 
3 33 35 32 
3 36 35 33 
3 34 33 29 
3 39 37 35 
3 35 37 38 
3 37 40 41 
3 42 40 37 
3 40 43 46 
3 42 44 43 
3 44 294 45 
3 43 45 48 
3 47 500 41 
3 49 47 46 
3 51 49 48 
3 45 52 50 
3 54 51 50 
3 52 55 53 
3 57 54 53 
3 55 58 56 
3 60 57 56 
3 58 62 59 
3 481 60 59 
3 62 64 61 
3 291 63 62 
3 63 65 64 
3 64 66 67 
3 65 68 66 
3 66 69 72 
3 68 70 69 
3 70 290 71 
3 69 71 74 
3 73 479 67 
3 75 73 72 
3 77 75 74 
3 71 79 76 
3 470 77 76 
3 79 81 78 
3 80 82 81 
3 80 79 71 
3 81 83 86 
3 82 84 83 
3 84 288 85 
3 83 85 88 
3 87 470 78 
3 89 87 86 
3 91 89 88 
3 85 93 90 
3 459 91 90 
3 93 95 92 
3 96 95 93 
3 94 93 85 
3 95 97 100 
3 98 97 95 
3 287 99 97 
3 97 99 102 
3 101 459 92 
3 103 101 100 
3 105 103 102 
3 99 106 104 
3 108 105 104 
3 106 110 107 
3 450 108 107 
3 110 112 109 
3 286 111 110 
3 111 113 112 
3 115 114 112 
3 112 114 117 
3 284 116 114 
3 114 116 119 
3 118 450 109 
3 120 118 117 
3 122 120 119 
3 116 123 121 
3 125 122 121 
3 123 126 124 
3 128 125 124 
3 126 129 127 
3 131 128 127 
3 129 132 130 
3 134 131 130 
3 132 135 133 
3 137 134 133 
3 135 139 136 
3 527 137 136 
3 139 141 138 
3 140 142 141 
3 140 139 135 
3 142 145 143 
3 141 143 144 
3 143 146 147 
3 145 148 146 
3 146 11 8 
3 148 149 11 
3 151 150 148 
3 150 152 149 
3 153 150 151 
3 153 156 152 
3 153 154 298 
3 158 156 153 
3 159 157 156 
3 157 168 152 
3 159 155 298 
3 159 161 219 
3 159 162 297 
3 165 157 159 
3 166 165 164 
3 157 165 167 
3 166 169 167 
3 169 16 13 
3 167 13 10 
3 166 171 170 
3 170 18 16 
3 171 173 172 
3 170 172 175 
3 173 181 174 
3 172 174 176 
3 176 26 19 
3 174 178 177 
3 176 177 29 
3 178 179 34 
3 180 178 174 
3 180 183 179 
3 182 180 181 
3 184 183 180 
3 183 185 187 
3 186 185 183 
3 188 185 186 
3 185 188 189 
3 188 191 193 
3 192 191 188 
3 197 194 191 
3 194 195 193 
3 194 196 295 
3 196 194 197 
3 198 197 192 
3 162 219 199 
3 198 199 208 
3 202 196 198 
3 204 202 201 
3 202 204 205 
3 196 202 203 
3 206 204 200 
3 204 206 207 
3 209 210 207 
3 209 206 208 
3 211 209 199 
3 211 213 210 
3 214 211 212 
3 214 215 213 
3 216 289 215 
3 216 214 217 
3 199 219 218 
3 224 216 218 
3 219 161 252 
3 219 221 232 
3 226 224 219 
3 216 224 225 
3 226 227 225 
3 228 229 227 
3 222 228 226 
3 230 228 222 
3 228 230 231 
3 230 233 234 
3 221 233 230 
3 237 235 233 
3 235 236 234 
3 238 240 236 
3 238 235 237 
3 241 238 239 
3 241 242 240 
3 241 243 245 
3 220 243 241 
3 220 244 239 
3 249 246 243 
3 246 247 245 
3 248 285 247 
3 248 246 249 
3 253 248 250 
3 220 252 251 
3 252 255 253 
3 255 256 254 
3 253 254 285 
3 258 257 255 
3 257 259 256 
3 260 257 258 
3 257 260 261 
3 262 265 261 
3 262 260 263 
3 252 161 264 
3 161 266 262 
3 266 267 265 
3 268 266 161 
3 268 269 267 
3 268 270 278 
3 270 268 271 
3 273 274 270 
3 160 273 272 
3 160 276 274 
3 274 276 277 
3 270 274 275 
3 298 154 276 
3 154 151 277 
3 277 142 140 
3 151 145 142 
3 275 140 279 
3 278 279 280 
3 280 279 135 
3 269 280 281 
3 281 280 132 
3 267 281 282 
3 282 281 129 
3 283 282 126 
3 261 265 282 
3 259 261 283 
3 283 123 116 
3 259 284 115 
3 256 115 113 
3 285 254 113 
3 247 285 111 
3 245 247 286 
3 286 106 99 
3 242 245 287 
3 240 242 98 
3 236 240 96 
3 236 94 288 
3 234 288 84 
3 231 84 82 
3 227 229 82 
3 225 227 80 
3 289 225 290 
3 289 70 68 
3 215 68 65 
3 213 65 63 
3 210 63 291 
3 207 291 292 
3 291 58 55 
3 205 292 293 
3 292 55 52 
3 295 203 293 
3 294 293 52 
3 195 295 294 
3 195 44 42 
3 193 42 39 
3 187 189 39 
3 179 187 36 
3 186 184 182 
3 296 181 173 
3 162 173 171 
3 297 171 166 
3 168 10 149 
3 299 300 144 
3 5 299 147 
3 301 304 300 
3 303 301 299 
3 302 301 303 
3 306 304 301 
3 304 305 527 
3 307 305 304 
3 308 309 307 
3 308 306 302 
3 311 312 309 
3 314 311 308 
3 526 312 311 
3 313 311 314 
3 314 310 523 
3 314 315 317 
3 317 318 330 
3 321 526 313 
3 315 323 322 
3 320 371 321 
3 322 323 325 
3 323 315 523 
3 323 324 326 
3 318 325 327 
3 327 325 326 
3 327 328 331 
3 327 329 319 
3 329 331 333 
3 329 332 335 
3 332 333 515 
3 332 334 336 
3 319 335 336 
3 334 338 337 
3 338 340 320 
3 338 339 341 
3 338 334 515 
3 340 342 345 
3 340 341 343 
3 342 343 506 
3 345 342 344 
3 320 345 346 
3 344 349 348 
3 349 351 347 
3 351 349 350 
3 344 506 350 
3 351 352 354 
3 347 351 353 
3 353 354 495 
3 356 353 355 
3 347 356 357 
3 355 360 359 
3 360 362 358 
3 360 361 363 
3 355 495 361 
3 358 362 364 
3 364 362 363 
3 366 364 365 
3 367 364 366 
3 370 358 367 
3 368 366 374 
3 370 372 379 
3 369 374 373 
3 370 373 376 
3 373 374 486 
3 373 375 377 
3 378 376 377 
3 372 376 378 
3 378 381 383 
3 381 378 380 
3 381 382 385 
3 383 381 384 
3 384 386 389 
3 384 385 387 
3 388 386 387 
3 386 388 390 
3 371 389 390 
3 388 396 391 
3 371 392 394 
3 396 395 392 
3 395 398 393 
3 394 392 393 
3 396 465 397 
3 395 397 399 
3 400 398 399 
3 398 400 403 
3 402 400 401 
3 403 400 402 
3 404 402 406 
3 406 402 405 
3 406 408 411 
3 408 406 407 
3 410 408 409 
3 408 410 412 
3 414 394 411 
3 412 410 525 
3 414 416 418 
3 415 417 416 
3 413 525 415 
3 416 417 419 
3 418 419 421 
3 421 423 321 
3 421 422 424 
3 419 433 422 
3 321 423 312 
3 312 423 424 
3 424 422 426 
3 309 424 425 
3 425 426 428 
3 425 427 305 
3 427 428 134 
3 305 427 137 
3 431 429 428 
3 428 429 131 
3 429 430 128 
3 432 430 429 
3 433 434 432 
3 422 433 431 
3 419 417 434 
3 417 415 435 
3 434 435 437 
3 415 525 436 
3 436 438 437 
3 438 440 439 
3 437 439 430 
3 439 440 122 
3 430 439 125 
3 438 443 441 
3 440 441 120 
3 441 442 118 
3 443 444 442 
3 445 409 444 
3 445 443 438 
3 410 445 436 
3 444 446 448 
3 409 407 446 
3 405 447 446 
3 447 449 448 
3 448 449 108 
3 442 448 450 
3 453 451 449 
3 449 451 105 
3 451 452 103 
3 453 454 452 
3 399 454 453 
3 401 453 447 
3 454 455 457 
3 397 455 454 
3 465 456 455 
3 455 456 458 
3 457 458 459 
3 452 457 101 
3 456 462 460 
3 458 460 91 
3 460 461 89 
3 462 463 461 
3 464 387 463 
3 464 462 456 
3 388 464 465 
3 466 468 461 
3 387 385 466 
3 385 382 467 
3 467 469 468 
3 468 469 470 
3 461 468 87 
3 473 471 469 
3 469 471 77 
3 471 472 75 
3 473 474 472 
3 377 474 473 
3 380 473 467 
3 475 477 472 
3 375 475 474 
3 375 486 476 
3 476 478 477 
3 477 478 479 
3 472 477 73 
3 483 480 478 
3 478 480 481 
3 480 482 60 
3 484 482 480 
3 485 365 484 
3 486 485 483 
3 374 366 485 
3 487 489 482 
3 365 363 487 
3 363 361 488 
3 487 488 490 
3 489 490 54 
3 482 489 57 
3 488 493 491 
3 490 491 51 
3 491 492 49 
3 494 492 491 
3 354 494 493 
3 361 495 493 
3 496 498 492 
3 352 496 494 
3 352 350 497 
3 497 499 498 
3 498 499 500 
3 492 498 47 
3 497 504 501 
3 499 501 502 
3 501 503 524 
3 504 505 503 
3 343 505 504 
3 350 506 504 
3 505 507 509 
3 341 507 505 
3 339 508 507 
3 507 508 510 
3 509 510 28 
3 503 509 31 
3 513 511 510 
3 510 511 25 
3 511 512 23 
3 513 514 512 
3 333 514 513 
3 515 513 508 
3 514 516 518 
3 331 516 514 
3 331 328 517 
3 516 517 519 
3 518 519 2 
3 512 518 21 
3 517 520 3 
3 328 326 520 
3 326 324 521 
3 521 6 3 
3 522 303 6 
3 324 523 522 
3 310 302 522 
3 502 524 32 
3 500 502 38 
3 479 481 61 
3 320 347 358 
3 300 527 138 
